<?xml version="1.0" encoding="utf-8"?>
<svg version="1.1" xmlns:xlink="http://www.w3.org/1999/xlink" width="34px" height="34px" xmlns="http://www.w3.org/2000/svg">
  <g transform="matrix(1 0 0 1 -886 -3218 )">
    <path d="M 21.006510416666664 21.006510416666668  C 22.11328125 19.899739583333332  22.666666666666664 18.56423611111111  22.666666666666664 17  C 22.666666666666664 15.435763888888886  22.11328125 14.100260416666666  21.006510416666664 12.993489583333334  C 19.899739583333336 11.88671875  18.564236111111114 11.333333333333334  17 11.333333333333334  C 15.43576388888889 11.333333333333334  14.100260416666668 11.88671875  12.993489583333332 12.993489583333334  C 11.88671875 14.100260416666666  11.333333333333332 15.435763888888886  11.333333333333332 17  C 11.333333333333332 18.56423611111111  11.88671875 19.899739583333332  12.993489583333332 21.006510416666668  C 14.100260416666668 22.11328125  15.43576388888889 22.666666666666668  17 22.666666666666668  C 18.564236111111114 22.666666666666668  19.899739583333336 22.11328125  21.006510416666664 21.006510416666668  Z M 23.17578125 10.82421875  C 24.872829861111114 12.521267361111107  25.721354166666664 14.579861111111107  25.721354166666664 17  C 25.721354166666664 19.42013888888889  24.872829861111114 21.47873263888889  23.17578125 23.17578125  C 21.47873263888889 24.87282986111111  19.42013888888889 25.721354166666664  17 25.721354166666664  C 14.579861111111112 25.721354166666664  12.521267361111112 24.87282986111111  10.82421875 23.17578125  C 9.12717013888889 21.47873263888889  8.278645833333334 19.42013888888889  8.278645833333334 17  C 8.278645833333334 14.579861111111107  9.12717013888889 12.521267361111107  10.82421875 10.82421875  C 12.521267361111112 9.127170138888886  14.579861111111112 8.278645833333334  17 8.278645833333334  C 19.42013888888889 8.278645833333334  21.47873263888889 9.127170138888886  23.17578125 10.82421875  Z M 27.514322916666664 6.485677083333335  C 27.912760416666664 6.884114583333335  28.111979166666664 7.363715277777776  28.111979166666664 7.924479166666665  C 28.111979166666664 8.485243055555555  27.912760416666664 8.96484375  27.514322916666664 9.36328125  C 27.115885416666664 9.76171875  26.636284722222225 9.9609375  26.075520833333336 9.9609375  C 25.514756944444446 9.9609375  25.03515625 9.76171875  24.63671875 9.36328125  C 24.23828125 8.96484375  24.0390625 8.485243055555555  24.0390625 7.924479166666665  C 24.0390625 7.363715277777776  24.23828125 6.884114583333335  24.63671875 6.485677083333335  C 25.03515625 6.087239583333335  25.514756944444446 5.888020833333335  26.075520833333336 5.888020833333335  C 26.636284722222225 5.888020833333335  27.115885416666664 6.087239583333335  27.514322916666664 6.485677083333335  Z M 18.693359375 3.043619791666665  C 17.667751736111114 3.0509982638888857  17.103298611111114 3.0546875  17 3.0546875  C 16.89670138888889 3.0546875  16.33224826388889 3.0509982638888857  15.306640625 3.043619791666665  C 14.281032986111112 3.036241319444441  13.502604166666668 3.036241319444441  12.971354166666668 3.043619791666665  C 12.440104166666668 3.0509982638888857  11.728081597222223 3.0731336805555554  10.835286458333332 3.110026041666665  C 9.942491319444446 3.146918402777776  9.182508680555557 3.220703125  8.555338541666668 3.331380208333335  C 7.928168402777779 3.442057291666665  7.400607638888889 3.578559027777776  6.97265625 3.740885416666665  C 6.234809027777779 4.036024305555555  5.585503472222222 4.463975694444441  5.024739583333334 5.024739583333335  C 4.463975694444445 5.5855034722222205  4.036024305555555 6.234809027777776  3.740885416666667 6.97265625  C 3.578559027777778 7.400607638888886  3.442057291666667 7.928168402777776  3.331380208333333 8.555338541666666  C 3.220703125 9.182508680555555  3.146918402777778 9.942491319444441  3.110026041666667 10.835286458333334  C 3.073133680555556 11.728081597222221  3.0509982638888893 12.440104166666666  3.043619791666667 12.971354166666666  C 3.0362413194444446 13.502604166666666  3.0362413194444446 14.281032986111107  3.043619791666667 15.306640625  C 3.0509982638888893 16.332248263888886  3.0546875 16.896701388888886  3.0546875 17  C 3.0546875 17.10329861111111  3.0509982638888893 17.66775173611111  3.043619791666667 18.693359375  C 3.0362413194444446 19.71896701388889  3.0362413194444446 20.497395833333332  3.043619791666667 21.028645833333332  C 3.0509982638888893 21.559895833333332  3.073133680555556 22.27191840277777  3.110026041666667 23.164713541666668  C 3.146918402777778 24.05750868055555  3.220703125 24.817491319444443  3.331380208333333 25.444661458333332  C 3.442057291666667 26.07183159722222  3.578559027777778 26.599392361111107  3.740885416666667 27.02734375  C 4.036024305555555 27.76519097222222  4.463975694444445 28.41449652777778  5.024739583333334 28.975260416666664  C 5.585503472222222 29.536024305555554  6.234809027777779 29.963975694444446  6.97265625 30.259114583333336  C 7.400607638888889 30.42144097222222  7.928168402777779 30.557942708333336  8.555338541666668 30.668619791666664  C 9.182508680555557 30.779296875  9.942491319444446 30.85308159722222  10.835286458333332 30.889973958333336  C 11.728081597222223 30.926866319444446  12.440104166666668 30.949001736111114  12.971354166666668 30.956380208333336  C 13.502604166666668 30.963758680555554  14.281032986111112 30.963758680555554  15.306640625 30.956380208333336  C 16.33224826388889 30.949001736111114  16.89670138888889 30.9453125  17 30.9453125  C 17.103298611111114 30.9453125  17.667751736111114 30.949001736111114  18.693359375 30.956380208333336  C 19.71896701388889 30.963758680555554  20.497395833333336 30.963758680555554  21.028645833333336 30.956380208333336  C 21.559895833333336 30.949001736111114  22.27191840277778 30.926866319444446  23.164713541666664 30.889973958333336  C 24.057508680555557 30.85308159722222  24.817491319444446 30.779296875  25.444661458333336 30.668619791666664  C 26.071831597222225 30.557942708333336  26.599392361111114 30.42144097222222  27.02734375 30.259114583333336  C 27.765190972222225 29.963975694444446  28.41449652777778 29.536024305555554  28.975260416666664 28.975260416666664  C 29.536024305555557 28.41449652777778  29.963975694444446 27.76519097222222  30.259114583333336 27.02734375  C 30.421440972222225 26.599392361111107  30.557942708333336 26.07183159722222  30.668619791666664 25.444661458333332  C 30.779296875 24.817491319444443  30.853081597222225 24.05750868055555  30.889973958333336 23.164713541666668  C 30.926866319444446 22.27191840277777  30.949001736111114 21.559895833333332  30.956380208333336 21.028645833333332  C 30.963758680555557 20.497395833333332  30.963758680555557 19.71896701388889  30.956380208333336 18.693359375  C 30.949001736111114 17.66775173611111  30.9453125 17.10329861111111  30.9453125 17  C 30.9453125 16.896701388888886  30.949001736111114 16.332248263888886  30.956380208333336 15.306640625  C 30.963758680555557 14.281032986111107  30.963758680555557 13.502604166666666  30.956380208333336 12.971354166666666  C 30.949001736111114 12.440104166666666  30.926866319444446 11.728081597222221  30.889973958333336 10.835286458333334  C 30.853081597222225 9.942491319444441  30.779296875 9.182508680555555  30.668619791666664 8.555338541666666  C 30.557942708333336 7.928168402777776  30.421440972222225 7.400607638888886  30.259114583333336 6.97265625  C 29.963975694444446 6.234809027777776  29.536024305555557 5.5855034722222205  28.975260416666664 5.024739583333335  C 28.41449652777778 4.463975694444441  27.765190972222225 4.036024305555555  27.02734375 3.740885416666665  C 26.599392361111114 3.578559027777776  26.071831597222225 3.442057291666665  25.444661458333336 3.331380208333335  C 24.817491319444446 3.220703125  24.057508680555557 3.146918402777776  23.164713541666664 3.110026041666665  C 22.27191840277778 3.0731336805555554  21.559895833333336 3.0509982638888857  21.028645833333336 3.043619791666665  C 20.497395833333336 3.036241319444441  19.71896701388889 3.036241319444441  18.693359375 3.043619791666665  Z M 33.889322916666664 9.983072916666666  C 33.963107638888886 11.281684027777775  34 13.620659722222221  34 17  C 34 20.37934027777778  33.963107638888886 22.71831597222222  33.889322916666664 24.016927083333332  C 33.74175347222222 27.08637152777778  32.826822916666664 29.462239583333336  31.14453125 31.14453125  C 29.462239583333336 32.826822916666664  27.08637152777778 33.74175347222222  24.016927083333336 33.889322916666664  C 22.718315972222225 33.963107638888886  20.37934027777778 34  17 34  C 13.620659722222223 34  11.281684027777777 33.963107638888886  9.983072916666668 33.889322916666664  C 6.913628472222223 33.74175347222222  4.537760416666667 32.826822916666664  2.85546875 31.14453125  C 1.1731770833333335 29.462239583333336  0.2582465277777778 27.08637152777778  0.11067708333333334 24.016927083333332  C 0.036892361111111105 22.71831597222222  0 20.37934027777778  0 17  C 0 13.620659722222221  0.036892361111111105 11.281684027777775  0.11067708333333334 9.983072916666666  C 0.2582465277777778 6.9136284722222205  1.1731770833333335 4.537760416666665  2.85546875 2.85546875  C 4.537760416666667 1.1731770833333346  6.913628472222223 0.2582465277777757  9.983072916666668 0.11067708333333459  C 11.281684027777777 0.0368923611111065  13.620659722222223 0  17 0  C 20.37934027777778 0  22.718315972222225 0.0368923611111065  24.016927083333336 0.11067708333333459  C 27.08637152777778 0.2582465277777757  29.462239583333336 1.1731770833333346  31.14453125 2.85546875  C 32.826822916666664 4.537760416666665  33.74175347222222 6.9136284722222205  33.889322916666664 9.983072916666666  Z " fill-rule="nonzero" fill="#000000" stroke="none" transform="matrix(1 0 0 1 886 3218 )" />
  </g>
</svg>