<?xml version="1.0" encoding="utf-8"?>
<svg version="1.1" xmlns:xlink="http://www.w3.org/1999/xlink" width="18px" height="34px" xmlns="http://www.w3.org/2000/svg">
  <g transform="matrix(1 0 0 1 -945 -3218 )">
    <path d="M 13.25 0  C 15.291666666666668 0  16.875 0.08173076923076894  18 0.24519230769230682  L 18 5.639423076923076  L 14.729166666666668 5.639423076923076  C 13.534722222222223 5.639423076923076  12.729166666666666 5.884615384615387  12.3125 6.375  C 11.895833333333334 6.865384615384613  11.6875 7.600961538461538  11.6875 8.581730769230768  L 11.6875 12.443509615384613  L 17.791666666666668 12.443509615384613  L 16.979166666666668 18.491586538461537  L 11.6875 18.491586538461537  L 11.6875 34  L 5.3125 34  L 5.3125 18.491586538461537  L 0 18.491586538461537  L 0 12.443509615384613  L 5.3125 12.443509615384613  L 5.3125 7.989182692307693  C 5.3125 5.455528846153845  6.034722222222222 3.4905849358974343  7.479166666666666 2.094350961538462  C 8.923611111111112 0.6981169871794899  10.847222222222223 0  13.25 0  Z " fill-rule="nonzero" fill="#000000" stroke="none" transform="matrix(1 0 0 1 945 3218 )" />
  </g>
</svg>