<?xml version="1.0" encoding="utf-8"?>
<svg version="1.1" xmlns:xlink="http://www.w3.org/1999/xlink" width="48px" height="34px" xmlns="http://www.w3.org/2000/svg">
  <g transform="matrix(1 0 0 1 -1054 -3218 )">
    <path d="M 19 9.687301587301587  L 19 23.26031746031746  L 32 16.514285714285716  L 19 9.687301587301587  Z M 7.224080267558529 0.485714285714284  C 11.701226309921964 0.16190476190476133  17.293199554069115 0  24 0  C 26.996655518394647 0  29.890746934225195 0.04047619047619033  32.68227424749164 0.121428571428571  C 35.47380156075809 0.20238095238095166  37.520624303233 0.28783068783068555  38.82274247491639 0.37777777777777644  L 40.77591973244147 0.485714285714284  C 40.793756967670014 0.485714285714284  40.9453734671126 0.49920634920634743  41.230769230769226 0.5261904761904743  C 41.516164994425864 0.553174603174605  41.721293199554076 0.5801587301587319  41.84615384615385 0.6071428571428588  C 41.971014492753625 0.6341269841269856  42.180602006688964 0.674603174603176  42.474916387959865 0.7285714285714298  C 42.769230769230774 0.7825396825396835  43.02341137123746 0.8544973544973502  43.23745819397993 0.9444444444444449  C 43.45150501672241 1.034391534391532  43.701226309921964 1.151322751322746  43.986622073578594 1.2952380952380944  C 44.27201783723524 1.4391534391534353  44.5484949832776 1.6145502645502638  44.81605351170568 1.8214285714285725  C 45.08361204013379 2.0283068783068736  45.34225195094761 2.266666666666666  45.591973244147155 2.536507936507935  C 45.69899665551839 2.6444444444444426  45.83723522853958 2.8108465608465574  46.006688963210706 3.0357142857142865  C 46.176142697881836 3.2605820105820076  46.434782608695656 3.786772486772486  46.78260869565217 4.614285714285713  C 47.1304347826087 5.441798941798936  47.366778149386846 6.350264550264548  47.49163879598662 7.33968253968254  C 47.63433667781494 8.49100529100529  47.745819397993316 9.718783068783067  47.826086956521735 11.023015873015872  C 47.90635451505017 12.327248677248676  47.955406911928655 13.348148148148145  47.97324414715719 14.085714285714285  L 47.97324414715719 15.165079365079364  L 47.97324414715719 18.834920634920636  C 47.99108138238573 21.443386243386236  47.83054626532888 24.05185185185185  47.49163879598662 26.66031746031746  C 47.366778149386846 27.649735449735452  47.14381270903011 28.544708994708994  46.82274247491639 29.345238095238095  C 46.501672240802684 30.145767195767196  46.216276477146046 30.698941798941803  45.96655518394649 31.004761904761903  L 45.591973244147155 31.463492063492065  C 45.34225195094761 31.733333333333334  45.08361204013379 31.971693121693118  44.81605351170568 32.17857142857143  C 44.5484949832776 32.38544973544974  44.27201783723524 32.55634920634921  43.986622073578594 32.69126984126984  C 43.701226309921964 32.826190476190476  43.45150501672241 32.938624338624344  43.23745819397993 33.028571428571425  C 43.02341137123746 33.11851851851851  42.769230769230774 33.19047619047619  42.474916387959865 33.24444444444444  C 42.180602006688964 33.2984126984127  41.96655518394648 33.33888888888889  41.83277591973244 33.365873015873014  C 41.6989966555184 33.39285714285714  41.493868450390195 33.41984126984127  41.21739130434783 33.446825396825396  C 40.94091415830546 33.47380952380953  40.793756967670014 33.48730158730159  40.77591973244147 33.48730158730159  C 36.298773690078036 33.82910052910053  30.70680044593088 34  24 34  C 20.307692307692307 33.96402116402117  17.10144927536232 33.90555555555556  14.381270903010034 33.824603174603176  C 11.661092530657747 33.743650793650794  9.872909698996656 33.67619047619048  9.016722408026755 33.62222222222222  L 7.705685618729097 33.51428571428572  L 6.742474916387959 33.406349206349205  C 6.100334448160535 33.31640211640212  5.614269788182832 33.22645502645502  5.2842809364548495 33.13650793650793  C 4.954292084726868 33.04656084656085  4.499442586399109 32.85767195767196  3.919732441471572 32.56984126984127  C 3.340022296544036 32.28201058201058  2.8361204013377925 31.913227513227515  2.408026755852843 31.463492063492065  C 2.3010033444816056 31.355555555555558  2.1627647714604237 31.18915343915344  1.9933110367892977 30.964285714285715  C 1.8238573021181717 30.73941798941799  1.5652173913043477 30.213227513227515  1.2173913043478262 29.385714285714286  C 0.8695652173913044 28.558201058201057  0.633221850613155 27.649735449735452  0.5083612040133779 26.66031746031746  C 0.36566332218506137 25.508994708994706  0.254180602006689 24.281216931216928  0.17391304347826086 22.976984126984128  C 0.09364548494983278 21.672751322751317  0.044593088071348944 20.651851851851852  0.026755852842809364 19.91428571428571  L 0.026755852842809364 18.834920634920636  L 0.026755852842809364 15.165079365079364  C 0.008918617614269786 12.556613756613755  0.16945373467112596 9.948148148148146  0.5083612040133779 7.33968253968254  C 0.633221850613155 6.350264550264548  0.8561872909698997 5.4552910052909995  1.177257525083612 4.654761904761903  C 1.4983277591973245 3.854232804232803  1.7837235228539576 3.301058201058198  2.0334448160535117 2.995238095238096  L 2.408026755852843 2.536507936507935  C 2.6577480490523975 2.266666666666666  2.9163879598662206 2.0283068783068736  3.1839464882943145 1.8214285714285725  C 3.4515050167224075 1.6145502645502638  3.7279821627647713 1.4391534391534353  4.013377926421405 1.2952380952380944  C 4.298773690078038 1.151322751322746  4.548494983277592 1.034391534391532  4.762541806020067 0.9444444444444449  C 4.976588628762542 0.8544973544973502  5.230769230769231 0.7825396825396835  5.525083612040134 0.7285714285714298  C 5.819397993311037 0.674603174603176  6.028985507246379 0.6341269841269856  6.153846153846153 0.6071428571428588  C 6.278706800445931 0.5801587301587319  6.483835005574137 0.553174603174605  6.769230769230769 0.5261904761904743  C 7.0546265328874025 0.49920634920634743  7.20624303232999 0.485714285714284  7.224080267558529 0.485714285714284  Z " fill-rule="nonzero" fill="#000000" stroke="none" transform="matrix(1 0 0 1 1054 3218 )" />
  </g>
</svg>